<?xml version="1.0" encoding="UTF-8"?><svg id="_레이어_1" xmlns="http://www.w3.org/2000/svg" viewBox="0 0 219.97 139.74"><circle cx="109.34" cy="48.27" r="1.78" fill="#1365a6"/><circle cx="128.09" cy="45.92" r="1.58" fill="#e5782a"/><circle cx="137.04" cy="39.87" r="1.96" fill="#e5782a"/><circle cx="149.75" cy="36.36" r="2.43" fill="#e5782a"/><circle cx="162.53" cy="36.36" r="2.48" fill="#e5782a"/><circle cx="172.79" cy="41.27" r="2.87" fill="#e5782a"/><circle cx="184.24" cy="52.95" r="3.22" fill="#e5782a"/><circle cx="184.24" cy="86.63" r="3.22" fill="#e5782a"/><circle cx="188.3" cy="69.6" r="4.2" fill="#e5782a"/><circle cx="173.88" cy="98.87" r="2.87" fill="#e5782a"/><circle cx="162.53" cy="104.56" r="2.48" fill="#e5782a"/><circle cx="149.79" cy="104.56" r="2.43" fill="#e5782a"/><circle cx="137.04" cy="101.21" r="1.96" fill="#e5782a"/><circle cx="128.09" cy="94.53" r="1.58" fill="#e5782a"/><circle cx="116.98" cy="37.1" r="2.43" fill="#1365a6"/><circle cx="129.01" cy="27.21" r="2.82" fill="#1365a6"/><circle cx="142.13" cy="21.61" r="3.23" fill="#1365a6"/><circle cx="158.72" cy="20.26" r="3.73" fill="#1365a6"/><circle cx="173.72" cy="24.3" r="4.11" fill="#1365a6"/><circle cx="188.15" cy="32.78" r="4.43" fill="#1365a6"/><circle cx="200.69" cy="48.55" r="4.92" fill="#1365a6"/><circle cx="205.48" cy="71.13" r="6.25" fill="#1365a6"/><circle cx="200.7" cy="93.15" r="4.92" fill="#1365a6"/><circle cx="188.15" cy="111.04" r="4.43" fill="#1365a6"/><circle cx="173.72" cy="119.44" r="4.11" fill="#1365a6"/><circle cx="158.72" cy="123.34" r="3.73" fill="#1365a6"/><circle cx="142.13" cy="121.75" r="3.23" fill="#1365a6"/><circle cx="128.4" cy="115" r="2.82" fill="#1365a6"/><circle cx="116.98" cy="106.13" r="2.43" fill="#1365a6"/><circle cx="109.34" cy="94.78" r="1.78" fill="#1365a6"/><polygon points="23.1 65.09 15.26 65.09 15.25 54.43 9.06 54.43 9.06 84.2 15.25 84.2 15.25 71.28 23.09 71.28 23.09 84.2 29.3 84.2 29.3 54.43 23.09 54.43 23.1 65.09" fill="#1365a6"/><path d="M44.3,63.01c-5.7,0-10.87,3.91-10.87,10.69s5.17,10.66,10.87,10.66,10.87-3.91,10.87-10.66-5.17-10.69-10.87-10.69Zm0,16.38c-3.35,0-5.36-2.26-5.36-5.7s2.01-5.73,5.36-5.73,5.36,2.29,5.36,5.73-2.01,5.7-5.36,5.7Z" fill="#1365a6"/><path d="M63.28,79.6c-.53-.11-1.2-.43-1.2-1.65l-.29-24.08h-5.58v23.85c0,3.68,1.83,5.84,5.68,6.41,1.32,.2,1.76,.09,2.35,.04l-.08-4.66c-.43,.09-.55,.16-.87,.09Z" fill="#1365a6"/><path d="M92.05,64.44l-.23-.14c-2.93-1.87-6.68-1.83-9.56,.12-.42,.28-.79,.61-1.15,.95-.37-.33-.75-.65-1.18-.92l-.23-.14c-2.93-1.87-6.68-1.83-9.56,.12-2.39,1.62-3.82,4.31-3.82,7.2v12.59h5.5v-12.59c0-1.06,.53-2.05,1.41-2.65,1.06-.72,2.43-.73,3.51-.04l.23,.14c.92,.59,1.47,1.59,1.47,2.69v12.45h0s5.5,0,5.5,0v-12.45s0,0,0,0v-.14c0-1.06,.53-2.05,1.41-2.65,1.06-.72,2.43-.73,3.51-.04l.23,.14c.92,.59,1.47,1.6,1.47,2.69v12.45h5.5v-12.45c0-2.98-1.5-5.71-4.01-7.32Z" fill="#1365a6"/><path d="M116.33,65.82c-3.87-3.48-10-3.79-14.24-.72-2.75,1.99-4.16,4.87-4.11,8.35-.01,.17-.04,.8,.04,1.67l.17,1.22c.32,1.75,1.08,3.95,2.87,5.71,1.71,1.68,4.07,2.56,6.49,2.71,2.1,.13,4.07-.02,5.97-.93,.97-.47,1.87-1.07,2.7-1.75,.52-.43,1.01-.89,1.48-1.37,.15-.15,1.53-1.77,1.55-1.76l-4.61-2.3c-.05-.03-1.62,1.59-1.8,1.72-.87,.66-1.94,1.05-3.05,1.08-1.1,.02-2.27-.08-3.3-.46-1.22-.45-1.97-1.46-2.39-2.6,0,0,15.65,.11,15.66,.11,.08,0,.13-2.24,.13-2.41-.03-2.16-.57-4.28-1.74-6.13-.5-.79-1.11-1.51-1.81-2.14Zm-12.08,5.07c.3-.54,.73-1,1.28-1.4,2.05-1.48,5.01-1.33,6.88,.34,.41,.36,.71,.75,.94,1.14l-9.1-.08Z" fill="#1365a6"/><path d="M141.3,77.7v.11c0,3.02-1.43,5.14-4.37,5.99-.79,.22-1.63,.35-2.52,.37-.14,.01-.28,.01-.42,.01h-12.69v-4.78h12.03c.41,0,.76-.06,1.05-.17,.28-.12,.52-.27,.72-.46,.19-.19,.33-.39,.42-.6,.09-.22,.14-.44,.14-.67,0-.11,0-.23-.05-.38q-.18-.38-.47-.65c-.4-.36-1.27-.33-1.86-.33h-5.87c-.51,0-1.03-.04-1.53-.12-.46-.07-.95-.15-1.38-.35-.65-.3-1.27-.72-1.79-1.2-.13-.12-.24-.25-.35-.39-1.64-2.03-1.85-5.98-.57-8.09,1.27-2.1,3.24-2.93,5.6-2.93h11.58l-.07,4.78h-9.6c-.44,0-.81,.06-1.11,.17-.3,.12-.55,.27-.76,.46-.2,.19-.35,.39-.45,.61-.09,.21-.14,.43-.14,.66,0,.45,.25,1.06,.67,1.42,.43,.36,1.22,.48,1.85,.48h5c1.2,0,2.25,.15,3.16,.43,2.47,.77,3.79,3.12,3.79,5.64Z" fill="#1365a6"/><path d="M157.28,54.87h-6.48l-10.16,29.38h7.6l1.68-5.79h7.97l1.68,5.79h7.88l-10.16-29.38Zm-1.21,17.33h-4.34c.72-2.49,1.46-5,2.17-7.59,.73,2.57,1.41,5.06,2.17,7.59Z" fill="#e5782a"/><rect x="169.26" y="54.96" width="6" height="29.28" fill="#e5782a"/></svg>