<?xml version="1.0" encoding="UTF-8"?><svg id="_레이어_1" xmlns="http://www.w3.org/2000/svg" viewBox="0 0 16 16"><rect width="16" height="16" fill="#040000"/><g><path d="M9.5,.67c3.39,.69,5.94,3.69,5.94,7.29,0,.42-.03,.83-.1,1.22" fill="none" stroke="#fff" stroke-miterlimit="10"/><path d="M6.42,15.24C3.04,14.51,.52,11.48,.56,7.88c0-.42,.04-.83,.11-1.22" fill="none" stroke="#fff" stroke-miterlimit="10"/><polygon points="9.14 6.73 6.86 6.73 6.86 3.63 5.06 3.63 5.06 12.29 6.86 12.29 6.86 8.53 9.14 8.53 9.14 12.29 10.94 12.29 10.94 3.63 9.14 3.63 9.14 6.73" fill="#3f89c9"/><circle cx="5.4" cy="1.11" r=".93" fill="#3f89c9"/><circle cx="2.14" cy="3.69" r=".93" fill="#3f89c9"/><circle cx="14.1" cy="12.33" r=".93" fill="#ea7429"/><circle cx="10.84" cy="14.87" r=".93" fill="#ea7429"/></g></svg>