<?xml version="1.0" encoding="UTF-8"?><svg id="_레이어_1" xmlns="http://www.w3.org/2000/svg" viewBox="0 0 16 16"><g><path d="M7.98,2.74l.57-.5c1.87-1.63,4.71-1.44,6.35,.43,1.63,1.88,1.44,4.72-.43,6.35l-6.69,5.84L1.42,8.93c-.63-.59-1.06-1.33-1.27-2.11" fill="#3f89c9"/><path d="M7.98,2.74s-3.39,3.73-4.73,4.72c-.27,.2-2.02,1.32-3.1-.64v-.02c-.4-1.45-.05-3.06,1.05-4.23,1.7-1.82,4.54-1.92,6.36-.22l.42,.39Z" fill="#ea7429"/></g><polygon points="13.12 8.68 12.17 9.52 11.43 9.52 10.91 7.37 10.24 9.52 8.16 9.52 7.56 8.57 6.41 10.71 5.04 9.53 3.77 9.57 2.9 8.76 5.38 8.67 6.13 9.32 7.5 6.78 8.69 8.68 9.55 8.68 11.02 3.95 12.17 8.68 13.12 8.68" fill="#fff"/></svg>